<svg height="846" width="720" xmlns="http://www.w3.org/2000/svg">
<rect height="846" fill="#555" width="720"></rect>
<text fill="#7f7" font-family="Courier New" font-size="12" xml:space="preserve">
<tspan x="10" y="26">├── ansi-regex@2.1.1 </tspan>
<tspan x="10" y="42">├── ansi-styles@2.2.1 </tspan>
<tspan x="10" y="58">├─┬ babel-code-frame@6.22.0 </tspan>
<tspan x="10" y="74">│ ├─┬ chalk@1.1.3 </tspan>
<tspan x="10" y="90">│ │ ├── escape-string-regexp@1.0.5 </tspan>
<tspan x="10" y="106">│ │ ├── has-ansi@2.0.0 </tspan>
<tspan x="10" y="122">│ │ ├── strip-ansi@3.0.1 </tspan>
<tspan x="10" y="138">│ │ └── supports-color@2.0.0 </tspan>
<tspan x="10" y="154">│ ├── esutils@2.0.2 </tspan>
<tspan x="10" y="170">│ └── js-tokens@3.0.1 </tspan>
<tspan x="10" y="186">└─┬ babel-core@6.24.0 </tspan>
<tspan x="10" y="202">  ├─┬ babel-generator@6.24.0 </tspan>
<tspan x="10" y="218">  │ ├─┬ detect-indent@4.0.0 </tspan>
<tspan x="10" y="234">  │ │ └─┬ repeating@2.0.1 </tspan>
<tspan x="10" y="250">  │ │   └─┬ is-finite@1.0.2 </tspan>
<tspan x="10" y="266">  │ │     └── number-is-nan@1.0.1 </tspan>
<tspan x="10" y="282">  │ ├── jsesc@1.3.0 </tspan>
<tspan x="10" y="298">  │ └── trim-right@1.0.1 </tspan>
<tspan x="10" y="314">  ├── babel-helpers@6.23.0 </tspan>
<tspan x="10" y="330">  ├── babel-messages@6.23.0 </tspan>
<tspan x="10" y="346">  ├─┬ babel-register@6.24.0 </tspan>
<tspan x="10" y="362">  │ ├── core-js@2.4.1 </tspan>
<tspan x="10" y="378">  │ ├─┬ home-or-tmp@2.0.0 </tspan>
<tspan x="10" y="394">  │ │ ├── os-homedir@1.0.2 </tspan>
<tspan x="10" y="410">  │ │ └── os-tmpdir@1.0.2 </tspan>
<tspan x="10" y="426">  │ ├─┬ mkdirp@0.5.1 </tspan>
<tspan x="10" y="442">  │ │ └── minimist@0.0.8 </tspan>
<tspan x="10" y="458">  │ └── source-map-support@0.4.14 </tspan>
<tspan x="10" y="474">  ├─┬ babel-runtime@6.23.0 </tspan>
<tspan x="10" y="490">  │ └── regenerator-runtime@0.10.3 </tspan>
<tspan x="10" y="506">  ├── babel-template@6.23.0 </tspan>
<tspan x="10" y="522">  ├─┬ babel-traverse@6.23.1 </tspan>
<tspan x="10" y="538">  │ ├── globals@9.17.0 </tspan>
<tspan x="10" y="554">  │ └─┬ invariant@2.2.2 </tspan>
<tspan x="10" y="570">  │   └── loose-envify@1.3.1 </tspan>
<tspan x="10" y="586">  ├─┬ babel-types@6.23.0 </tspan>
<tspan x="10" y="602">  │ └── to-fast-properties@1.0.2 </tspan>
<tspan x="10" y="618">  ├── babylon@6.16.1 </tspan>
<tspan x="10" y="634">  ├── convert-source-map@1.5.0 </tspan>
<tspan x="10" y="650">  ├─┬ debug@2.6.3 </tspan>
<tspan x="10" y="666">  │ └── ms@0.7.2 </tspan>
<tspan x="10" y="682">  ├── json5@0.5.1 </tspan>
<tspan x="10" y="698">  ├── lodash@4.17.4 </tspan>
<tspan x="10" y="714">  ├─┬ minimatch@3.0.3 </tspan>
<tspan x="10" y="730">  │ └─┬ brace-expansion@1.1.6 </tspan>
<tspan x="10" y="746">  │   ├── balanced-match@0.4.2 </tspan>
<tspan x="10" y="762">  │   └── concat-map@0.0.1 </tspan>
<tspan x="10" y="778">  ├── path-is-absolute@1.0.1 </tspan>
<tspan x="10" y="794">  ├── private@0.1.7 </tspan>
<tspan x="10" y="810">  ├── slash@1.0.0 </tspan>
<tspan x="10" y="826">  └── source-map@0.5.6</tspan>
</text>
</svg>
